<svg width="384" height="512" xmlns="http://www.w3.org/2000/svg" xmlns:xlink="http://www.w3.org/1999/xlink" xml:space="preserve" overflow="hidden"><defs><clipPath id="clip0"><rect x="0" y="0" width="384" height="512"/></clipPath></defs><g clip-path="url(#clip0)"><path d="M336 64 256 64C256 28.7 227.3 0 192 0 156.7 0 128 28.7 128 64L48 64C21.5 64 0 85.5 0 112L0 464C0 490.5 21.5 512 48 512L336 512C362.5 512 384 490.5 384 464L384 112C384 85.5 362.5 64 336 64ZM192 40C205.3 40 216 50.7 216 64 216 77.3 205.3 88 192 88 178.7 88 168 77.3 168 64 168 50.7 178.7 40 192 40ZM288 344C288 348.4 284.4 352 280 352L224 352 224 408C224 412.4 220.4 416 216 416L168 416C163.6 416 160 412.4 160 408L160 352 104 352C99.6 352 96 348.4 96 344L96 296C96 291.6 99.6 288 104 288L160 288 160 232C160 227.6 163.6 224 168 224L216 224C220.4 224 224 227.6 224 232L224 288 280 288C284.4 288 288 291.6 288 296L288 344ZM288 152C288 156.4 284.4 160 280 160L104 160C99.6 160 96 156.4 96 152L96 136C96 131.6 99.6 128 104 128L280 128C284.4 128 288 131.6 288 136L288 152Z" fill="#E5D7BE"/></g></svg>