<svg width="512" height="512" xmlns="http://www.w3.org/2000/svg" xmlns:xlink="http://www.w3.org/1999/xlink" xml:space="preserve" overflow="hidden"><defs><clipPath id="clip0"><rect x="0" y="0" width="512" height="512"/></clipPath></defs><g clip-path="url(#clip0)"><path d="M288 32C288 14.3 273.7 0 256 0 238.3 0 224 14.3 224 32L224 240C224 248.8 216.8 256 208 256 199.2 256 192 248.8 192 240L192 64C192 46.3 177.7 32 160 32 142.3 32 128 46.3 128 64L128 336C128 337.5 128 339.1 128.1 340.6L67.6 283C51.6 267.8 26.3 268.4 11 284.4-4.3 300.4-3.6 325.7 12.4 341L124.8 448C167.9 489.1 225.2 512 284.8 512L304 512C401.2 512 480 433.2 480 336L480 128C480 110.3 465.7 96 448 96 430.3 96 416 110.3 416 128L416 240C416 248.8 408.8 256 400 256 391.2 256 384 248.8 384 240L384 64C384 46.3 369.7 32 352 32 334.3 32 320 46.3 320 64L320 240C320 248.8 312.8 256 304 256 295.2 256 288 248.8 288 240L288 32ZM240 336C240 327.163 247.163 320 256 320 264.837 320 272 327.163 272 336 272 344.837 264.837 352 256 352 247.163 352 240 344.837 240 336ZM320 352C328.837 352 336 359.163 336 368 336 376.837 328.837 384 320 384 311.163 384 304 376.837 304 368 304 359.163 311.163 352 320 352ZM368 336C368 327.163 375.163 320 384 320 392.837 320 400 327.163 400 336 400 344.837 392.837 352 384 352 375.163 352 368 344.837 368 336ZM352 416C360.837 416 368 423.163 368 432 368 440.837 360.837 448 352 448 343.163 448 336 440.837 336 432 336 423.163 343.163 416 352 416ZM240 432C240 423.163 247.163 416 256 416 264.837 416 272 423.163 272 432 272 440.837 264.837 448 256 448 247.163 448 240 440.837 240 432ZM192 384C200.837 384 208 391.163 208 400 208 408.837 200.837 416 192 416 183.163 416 176 408.837 176 400 176 391.163 183.163 384 192 384Z" fill="#FFD966"/></g></svg>