<svg width="16" height="16" xmlns="http://www.w3.org/2000/svg" xmlns:xlink="http://www.w3.org/1999/xlink" xml:space="preserve" overflow="hidden"><defs><clipPath id="clip0"><rect x="0" y="0" width="16" height="16"/></clipPath></defs><g clip-path="url(#clip0)"><path d="M1 8C1 11.866 4.13401 15 8 15 11.866 15 15 11.866 15 8 15 4.13401 11.866 1 8 1 4.13401 1 1 4.13401 1 8ZM16 8C16 12.4183 12.4183 16 8 16 3.58172 16 -8.88178e-16 12.4183 -8.88178e-16 8-2.66454e-15 3.58172 3.58172 -8.88178e-16 8 -8.88178e-16 12.4183-2.66454e-15 16 3.58172 16 8ZM4.5 7.5C4.22386 7.5 4 7.72386 4 8 4 8.27614 4.22386 8.5 4.5 8.5L10.293 8.5 8.146 10.646C7.95049 10.8415 7.95049 11.1585 8.146 11.354 8.34151 11.5495 8.65849 11.5495 8.854 11.354L11.854 8.354C12.0495 8.15899 12.0499 7.8424 11.8549 7.64689 11.8546 7.6466 11.8543 7.6463 11.854 7.646L8.854 4.646C8.65849 4.45049 8.34151 4.45049 8.146 4.646 7.95049 4.84151 7.95049 5.15849 8.146 5.354L10.293 7.5 4.5 7.5Z" fill="#414754" fill-rule="evenodd"/></g></svg>