<svg width="16" height="16" xmlns="http://www.w3.org/2000/svg" xmlns:xlink="http://www.w3.org/1999/xlink" xml:space="preserve" overflow="hidden"><defs><clipPath id="clip0"><rect x="0" y="0" width="16" height="16"/></clipPath></defs><g clip-path="url(#clip0)"><path d="M5 11.5C5 11.2239 5.22386 11 5.5 11L14.5 11C14.7761 11 15 11.2239 15 11.5 15 11.7761 14.7761 12 14.5 12L5.5 12C5.22386 12 5 11.7761 5 11.5ZM5 7.5C5 7.22386 5.22386 7 5.5 7L14.5 7C14.7761 7 15 7.22386 15 7.5 15 7.77614 14.7761 8 14.5 8L5.5 8C5.22386 8 5 7.77614 5 7.5ZM5 3.5C5 3.22386 5.22386 3 5.5 3L14.5 3C14.7761 3 15 3.22386 15 3.5 15 3.77614 14.7761 4 14.5 4L5.5 4C5.22386 4 5 3.77614 5 3.5ZM3.854 2.146C4.04951 2.34102 4.04991 2.6576 3.85489 2.85311 3.8546 2.8534 3.8543 2.8537 3.854 2.854L2.354 4.354C2.15898 4.54951 1.8424 4.54991 1.64689 4.35489 1.6466 4.3546 1.6463 4.3543 1.646 4.354L1.146 3.854C0.950491 3.65849 0.950491 3.34151 1.146 3.146 1.34151 2.95049 1.65849 2.95049 1.854 3.146L2 3.293 3.146 2.146C3.34102 1.95049 3.6576 1.95009 3.85311 2.14511 3.8534 2.1454 3.8537 2.1457 3.854 2.146ZM3.854 6.146C4.04951 6.34101 4.04991 6.6576 3.85489 6.85311 3.8546 6.8534 3.8543 6.8537 3.854 6.854L2.354 8.354C2.15898 8.54951 1.8424 8.54991 1.64689 8.35489 1.6466 8.3546 1.6463 8.3543 1.646 8.354L1.146 7.854C0.950491 7.65849 0.950491 7.34151 1.146 7.146 1.34151 6.95049 1.65849 6.95049 1.854 7.146L2 7.293 3.146 6.146C3.34102 5.95049 3.6576 5.95009 3.85311 6.14511 3.8534 6.1454 3.8537 6.1457 3.854 6.146ZM3.854 10.146C4.04951 10.341 4.04991 10.6576 3.85489 10.8531 3.8546 10.8534 3.8543 10.8537 3.854 10.854L2.354 12.354C2.15898 12.5495 1.8424 12.5499 1.64689 12.3549 1.6466 12.3546 1.6463 12.3543 1.646 12.354L1.146 11.854C0.950491 11.6585 0.950491 11.3415 1.146 11.146 1.34151 10.9505 1.65849 10.9505 1.854 11.146L2 11.293 3.146 10.146C3.34102 9.95049 3.6576 9.95009 3.85311 10.1451 3.8534 10.1454 3.8537 10.1457 3.854 10.146Z" fill="#C55A11" fill-rule="evenodd"/></g></svg>