<svg width="512" height="512" xmlns="http://www.w3.org/2000/svg" xmlns:xlink="http://www.w3.org/1999/xlink" xml:space="preserve" overflow="hidden"><defs><clipPath id="clip0"><rect x="0" y="0" width="512" height="512"/></clipPath></defs><g clip-path="url(#clip0)"><path d="M64 256 64 160 224 160 224 256 64 256ZM64 320 224 320 224 416 64 416 64 320ZM288 416 288 320 448 320 448 416 288 416ZM448 256 288 256 288 160 448 160 448 256ZM64 32C28.7 32 0 60.7 0 96L0 416C0 451.3 28.7 480 64 480L448 480C483.3 480 512 451.3 512 416L512 96C512 60.7 483.3 32 448 32L64 32Z" fill="#540000"/></g></svg>