<svg width="324" height="320" xmlns="http://www.w3.org/2000/svg" xmlns:xlink="http://www.w3.org/1999/xlink" xml:space="preserve" overflow="hidden"><defs><clipPath id="clip0"><rect x="0" y="0" width="384" height="512"/></clipPath></defs><g clip-path="url(#clip0)"><path d="M224 136 224 0 24 0C10.7 0 0 10.7 0 24L0 488C0 501.3 10.7 512 24 512L360 512C373.3 512 384 501.3 384 488L384 160 248 160C234.8 160 224 149.2 224 136ZM64 72C64 67.58 67.58 64 72 64L152 64C156.42 64 160 67.58 160 72L160 88C160 92.42 156.42 96 152 96L72 96C67.58 96 64 92.42 64 88L64 72ZM64 136C64 131.58 67.58 128 72 128L152 128C156.42 128 160 131.58 160 136L160 152C160 156.42 156.42 160 152 160L72 160C67.58 160 64 156.42 64 152L64 136ZM256.81 384 304 384C312.84 384 320 391.16 320 400 320 408.84 312.84 416 304 416L256.81 416C240.36 416 225.54 406.86 218.17 392.14 215.22 386.22 210.08 385.62 208 385.62 205.92 385.62 200.78 386.21 197.98 391.81L190.31 407.15C187.601 412.571 182.06 415.994 176 415.99 175.62 415.99 175.25 415.97 174.86 415.94 168.41 415.49 162.86 411.19 160.83 405.05L144 354.59 133.39 386.47C127.5 404.13 111.01 416 92.39 416L80 416C71.16 416 64 408.84 64 400 64 391.16 71.16 384 80 384L92.39 384C97.22 384 101.5 380.92 103.03 376.34L121.22 321.7C124.52 311.89 133.66 305.29 144 305.29 154.34 305.29 163.48 311.88 166.77 321.7L180.65 363.34C200.42 347.15 234.7 353.64 246.65 377.5 248.67 381.56 252.61 384 256.81 384ZM377 105 279.1 7C274.6 2.5 268.5 0 262.1 0L256 0 256 128 384 128 384 121.9C384 115.6 381.5 109.5 377 105Z" fill="#414754"/></g></svg>