<svg width="576" height="512" xmlns="http://www.w3.org/2000/svg" xmlns:xlink="http://www.w3.org/1999/xlink" xml:space="preserve" overflow="hidden"><defs><clipPath id="clip0"><rect x="0" y="0" width="576" height="512"/></clipPath></defs><g clip-path="url(#clip0)"><path d="M384 64C384 46.3 398.3 32 416 32L544 32C561.7 32 576 46.3 576 64 576 81.7 561.7 96 544 96L448 96 448 192C448 209.7 433.7 224 416 224L320 224 320 320C320 337.7 305.7 352 288 352L192 352 192 448C192 465.7 177.7 480 160 480L32 480C14.3 480 0 465.7 0 448 0 430.3 14.3 416 32 416L128 416 128 320C128 302.3 142.3 288 160 288L256 288 256 192C256 174.3 270.3 160 288 160L384 160 384 64Z" fill="#8FAADC"/></g></svg>