<svg width="448" height="512" xmlns="http://www.w3.org/2000/svg" xmlns:xlink="http://www.w3.org/1999/xlink" xml:space="preserve" overflow="hidden"><defs><clipPath id="clip0"><rect x="0" y="0" width="448" height="512"/></clipPath></defs><g clip-path="url(#clip0)"><path d="M400 256 152 256 152 152.9C152 113.3 183.7 80.4 223.3 80 263.3 79.6 296 112.1 296 152L296 168C296 181.3 306.7 192 320 192L352 192C365.3 192 376 181.3 376 168L376 152C376 68 307.5-0.3 223.5 0 139.5 0.3 72 69.5 72 153.5L72 256 48 256C21.5 256 0 277.5 0 304L0 464C0 490.5 21.5 512 48 512L400 512C426.5 512 448 490.5 448 464L448 304C448 277.5 426.5 256 400 256ZM264 408C264 430.1 246.1 448 224 448 201.9 448 184 430.1 184 408L184 360C184 337.9 201.9 320 224 320 246.1 320 264 337.9 264 360L264 408Z" fill="#E5D7BE"/></g></svg>