<svg width="16" height="16" xmlns="http://www.w3.org/2000/svg" xmlns:xlink="http://www.w3.org/1999/xlink" xml:space="preserve" overflow="hidden"><defs><clipPath id="clip0"><rect x="0" y="0" width="16" height="16"/></clipPath></defs><g clip-path="url(#clip0)"><path d="M15.854 5.146C16.0495 5.34101 16.0499 5.6576 15.8549 5.85311 15.8546 5.8534 15.8543 5.8537 15.854 5.854L12.854 8.854C12.659 9.04951 12.3424 9.04991 12.1469 8.85489 12.1466 8.8546 12.1463 8.8543 12.146 8.854L10.646 7.354C10.4505 7.15849 10.4505 6.84151 10.646 6.646 10.8415 6.45049 11.1585 6.45049 11.354 6.646L12.5 7.793 15.146 5.146C15.341 4.95049 15.6576 4.95009 15.8531 5.14511 15.8534 5.1454 15.8537 5.1457 15.854 5.146Z" fill="#E5D7BE" fill-rule="evenodd"/><path d="M1 14C1 14 0 14 0 13 0 12 1 9 6 9 11 9 12 12 12 13 12 14 11 14 11 14L1 14ZM6 8C7.65685 8 9 6.65685 9 5 9 3.34315 7.65685 2 6 2 4.34315 2 3 3.34315 3 5 3 6.65685 4.34315 8 6 8Z" fill="#E5D7BE"/></g></svg>