<svg width="605" height="484" xmlns="http://www.w3.org/2000/svg" xmlns:xlink="http://www.w3.org/1999/xlink" xml:space="preserve" overflow="hidden"><defs><clipPath id="clip0"><rect x="0" y="0" width="605" height="484"/></clipPath></defs><g clip-path="url(#clip0)"><path d="M599.139 433.048 342.487 234.721C389.563 218.084 423.5 173.748 423.5 121 423.5 54.1664 369.334 0 302.5 0 239.07 0 187.645 48.9672 182.54 110.98L43.0117 3.21406C36.3945-1.89062 26.9414-0.75625 21.7422 5.86094L3.21406 29.6828C-1.89062 36.3-0.75625 45.7531 5.86094 50.8578L562.083 480.691C568.7 485.796 578.153 484.662 583.352 478.045L601.88 454.128C606.985 447.7 605.756 438.152 599.139 433.048ZM90.75 399.3 90.75 438.625C90.75 463.676 111.074 484 136.125 484L467.173 484 196.058 274.424C136.314 284.823 90.75 336.531 90.75 399.3Z" fill="#414754"/></g></svg>