<svg width="605" height="484" xmlns="http://www.w3.org/2000/svg" xmlns:xlink="http://www.w3.org/1999/xlink" xml:space="preserve" overflow="hidden"><defs><clipPath id="clip0"><rect x="0" y="0" width="605" height="484"/></clipPath></defs><g clip-path="url(#clip0)"><path d="M90.75 211.75C124.12 211.75 151.25 184.62 151.25 151.25 151.25 117.88 124.12 90.75 90.75 90.75 57.3805 90.75 30.25 117.88 30.25 151.25 30.25 184.62 57.3805 211.75 90.75 211.75ZM514.25 211.75C547.62 211.75 574.75 184.62 574.75 151.25 574.75 117.88 547.62 90.75 514.25 90.75 480.88 90.75 453.75 117.88 453.75 151.25 453.75 184.62 480.88 211.75 514.25 211.75ZM544.5 242 484 242C467.362 242 452.332 248.712 441.366 259.583 479.463 280.474 506.498 318.192 512.359 363L574.75 363C591.482 363 605 349.482 605 332.75L605 302.5C605 269.13 577.87 242 544.5 242ZM302.5 242C361.015 242 408.375 194.64 408.375 136.125 408.375 77.6102 361.015 30.25 302.5 30.25 243.985 30.25 196.625 77.6102 196.625 136.125 196.625 194.64 243.985 242 302.5 242ZM375.1 272.25 367.254 272.25C347.591 281.703 325.755 287.375 302.5 287.375 279.245 287.375 257.503 281.703 237.746 272.25L229.9 272.25C169.778 272.25 121 321.028 121 381.15L121 408.375C121 433.426 141.324 453.75 166.375 453.75L438.625 453.75C463.676 453.75 484 433.426 484 408.375L484 381.15C484 321.028 435.222 272.25 375.1 272.25ZM163.634 259.583C152.668 248.712 137.638 242 121 242L60.5 242C27.1305 242 0 269.13 0 302.5L0 332.75C0 349.482 13.518 363 30.25 363L92.5461 363C98.5016 318.192 125.538 280.474 163.634 259.583Z" fill="#E5D7BE"/></g></svg>